<svg xmlns="http://www.w3.org/2000/svg" width="800" height="420" viewBox="0 0 800 420" role="img" aria-label="최근 시·도별 산업구조 변화속도(2015~24년 연평균 SCI)">
<rect width="800" height="420" fill="#ffffff"/>
<text x="24.0" y="32.0" font-size="17" fill="#1a1a1a" text-anchor="start" font-weight="700" font-family="'Pretendard Variable',Pretendard,'Malgun Gothic','Apple SD Gothic Neo',sans-serif" >최근 시·도별 산업구조 변화속도(2015~24년 연평균 SCI)</text>
<line x1="70" y1="350.0" x2="776" y2="350.0" stroke="#e0e0e0" stroke-width="1"/>
<text x="62.0" y="354.0" font-size="12" fill="#595959" text-anchor="end" font-weight="400" font-family="'Pretendard Variable',Pretendard,'Malgun Gothic','Apple SD Gothic Neo',sans-serif" >0</text>
<line x1="70" y1="277.5" x2="776" y2="277.5" stroke="#e0e0e0" stroke-width="1"/>
<text x="62.0" y="281.5" font-size="12" fill="#595959" text-anchor="end" font-weight="400" font-family="'Pretendard Variable',Pretendard,'Malgun Gothic','Apple SD Gothic Neo',sans-serif" >0.0</text>
<line x1="70" y1="205.0" x2="776" y2="205.0" stroke="#e0e0e0" stroke-width="1"/>
<text x="62.0" y="209.0" font-size="12" fill="#595959" text-anchor="end" font-weight="400" font-family="'Pretendard Variable',Pretendard,'Malgun Gothic','Apple SD Gothic Neo',sans-serif" >0.0</text>
<line x1="70" y1="132.5" x2="776" y2="132.5" stroke="#e0e0e0" stroke-width="1"/>
<text x="62.0" y="136.5" font-size="12" fill="#595959" text-anchor="end" font-weight="400" font-family="'Pretendard Variable',Pretendard,'Malgun Gothic','Apple SD Gothic Neo',sans-serif" >0.0</text>
<line x1="70" y1="60.0" x2="776" y2="60.0" stroke="#e0e0e0" stroke-width="1"/>
<text x="62.0" y="64.0" font-size="12" fill="#595959" text-anchor="end" font-weight="400" font-family="'Pretendard Variable',Pretendard,'Malgun Gothic','Apple SD Gothic Neo',sans-serif" >0.1</text>
<path d="M78.8,350.0 v-284.8 q0,-4 4,-4 h16.0 q4,0 4,4 v284.8 z" fill="#1B4F9B"/>
<text x="90.8" y="372.0" font-size="13" fill="#1a1a1a" text-anchor="middle" font-weight="400" font-family="'Pretendard Variable',Pretendard,'Malgun Gothic','Apple SD Gothic Neo',sans-serif" >울산</text>
<path d="M120.3,350.0 v-218.7 q0,-4 4,-4 h16.0 q4,0 4,4 v218.7 z" fill="#1B4F9B"/>
<text x="132.3" y="372.0" font-size="13" fill="#1a1a1a" text-anchor="middle" font-weight="400" font-family="'Pretendard Variable',Pretendard,'Malgun Gothic','Apple SD Gothic Neo',sans-serif" >세종</text>
<path d="M161.8,350.0 v-216.4 q0,-4 4,-4 h16.0 q4,0 4,4 v216.4 z" fill="#1B4F9B"/>
<text x="173.8" y="372.0" font-size="13" fill="#1a1a1a" text-anchor="middle" font-weight="400" font-family="'Pretendard Variable',Pretendard,'Malgun Gothic','Apple SD Gothic Neo',sans-serif" >전남</text>
<path d="M203.4,350.0 v-190.9 q0,-4 4,-4 h16.0 q4,0 4,4 v190.9 z" fill="#1B4F9B"/>
<text x="215.4" y="372.0" font-size="13" fill="#1a1a1a" text-anchor="middle" font-weight="400" font-family="'Pretendard Variable',Pretendard,'Malgun Gothic','Apple SD Gothic Neo',sans-serif" >제주</text>
<path d="M244.9,350.0 v-185.1 q0,-4 4,-4 h16.0 q4,0 4,4 v185.1 z" fill="#1B4F9B"/>
<text x="256.9" y="372.0" font-size="13" fill="#1a1a1a" text-anchor="middle" font-weight="400" font-family="'Pretendard Variable',Pretendard,'Malgun Gothic','Apple SD Gothic Neo',sans-serif" >경북</text>
<path d="M286.4,350.0 v-183.3 q0,-4 4,-4 h16.0 q4,0 4,4 v183.3 z" fill="#1B4F9B"/>
<text x="298.4" y="372.0" font-size="13" fill="#1a1a1a" text-anchor="middle" font-weight="400" font-family="'Pretendard Variable',Pretendard,'Malgun Gothic','Apple SD Gothic Neo',sans-serif" >충남</text>
<path d="M327.9,350.0 v-165.4 q0,-4 4,-4 h16.0 q4,0 4,4 v165.4 z" fill="#1B4F9B"/>
<text x="339.9" y="372.0" font-size="13" fill="#1a1a1a" text-anchor="middle" font-weight="400" font-family="'Pretendard Variable',Pretendard,'Malgun Gothic','Apple SD Gothic Neo',sans-serif" >부산</text>
<path d="M369.5,350.0 v-163.6 q0,-4 4,-4 h16.0 q4,0 4,4 v163.6 z" fill="#1B4F9B"/>
<text x="381.5" y="372.0" font-size="13" fill="#1a1a1a" text-anchor="middle" font-weight="400" font-family="'Pretendard Variable',Pretendard,'Malgun Gothic','Apple SD Gothic Neo',sans-serif" >인천</text>
<path d="M411.0,350.0 v-161.9 q0,-4 4,-4 h16.0 q4,0 4,4 v161.9 z" fill="#1B4F9B"/>
<text x="423.0" y="372.0" font-size="13" fill="#1a1a1a" text-anchor="middle" font-weight="400" font-family="'Pretendard Variable',Pretendard,'Malgun Gothic','Apple SD Gothic Neo',sans-serif" >충북</text>
<path d="M452.5,350.0 v-159.6 q0,-4 4,-4 h16.0 q4,0 4,4 v159.6 z" fill="#1B4F9B"/>
<text x="464.5" y="372.0" font-size="13" fill="#1a1a1a" text-anchor="middle" font-weight="400" font-family="'Pretendard Variable',Pretendard,'Malgun Gothic','Apple SD Gothic Neo',sans-serif" >경남</text>
<path d="M494.1,350.0 v-153.2 q0,-4 4,-4 h16.0 q4,0 4,4 v153.2 z" fill="#1B4F9B"/>
<text x="506.1" y="372.0" font-size="13" fill="#1a1a1a" text-anchor="middle" font-weight="400" font-family="'Pretendard Variable',Pretendard,'Malgun Gothic','Apple SD Gothic Neo',sans-serif" >경기</text>
<path d="M535.6,350.0 v-137.5 q0,-4 4,-4 h16.0 q4,0 4,4 v137.5 z" fill="#1B4F9B"/>
<text x="547.6" y="372.0" font-size="13" fill="#1a1a1a" text-anchor="middle" font-weight="400" font-family="'Pretendard Variable',Pretendard,'Malgun Gothic','Apple SD Gothic Neo',sans-serif" >광주</text>
<path d="M577.1,350.0 v-134.6 q0,-4 4,-4 h16.0 q4,0 4,4 v134.6 z" fill="#1B4F9B"/>
<text x="589.1" y="372.0" font-size="13" fill="#1a1a1a" text-anchor="middle" font-weight="400" font-family="'Pretendard Variable',Pretendard,'Malgun Gothic','Apple SD Gothic Neo',sans-serif" >대구</text>
<path d="M618.6,350.0 v-131.7 q0,-4 4,-4 h16.0 q4,0 4,4 v131.7 z" fill="#1B4F9B"/>
<text x="630.6" y="372.0" font-size="13" fill="#1a1a1a" text-anchor="middle" font-weight="400" font-family="'Pretendard Variable',Pretendard,'Malgun Gothic','Apple SD Gothic Neo',sans-serif" >전북</text>
<path d="M660.2,350.0 v-123.0 q0,-4 4,-4 h16.0 q4,0 4,4 v123.0 z" fill="#1B4F9B"/>
<text x="672.2" y="372.0" font-size="13" fill="#1a1a1a" text-anchor="middle" font-weight="400" font-family="'Pretendard Variable',Pretendard,'Malgun Gothic','Apple SD Gothic Neo',sans-serif" >대전</text>
<path d="M701.7,350.0 v-121.3 q0,-4 4,-4 h16.0 q4,0 4,4 v121.3 z" fill="#1B4F9B"/>
<text x="713.7" y="372.0" font-size="13" fill="#1a1a1a" text-anchor="middle" font-weight="400" font-family="'Pretendard Variable',Pretendard,'Malgun Gothic','Apple SD Gothic Neo',sans-serif" >강원</text>
<path d="M743.2,350.0 v-99.8 q0,-4 4,-4 h16.0 q4,0 4,4 v99.8 z" fill="#1B4F9B"/>
<text x="755.2" y="372.0" font-size="13" fill="#1a1a1a" text-anchor="middle" font-weight="400" font-family="'Pretendard Variable',Pretendard,'Malgun Gothic','Apple SD Gothic Neo',sans-serif" >서울</text>
<text x="776.0" y="384.0" font-size="12" fill="#595959" text-anchor="end" font-weight="400" font-family="'Pretendard Variable',Pretendard,'Malgun Gothic','Apple SD Gothic Neo',sans-serif" ></text>
<text x="24.0" y="406.0" font-size="12" fill="#595959" text-anchor="start" font-weight="400" font-family="'Pretendard Variable',Pretendard,'Malgun Gothic','Apple SD Gothic Neo',sans-serif" >출처: 국가데이터처 지역소득·경제활동인구조사(KOSIS), 다잇다 노트 시산 · 17개 시도 평균 0.0294</text>
</svg>