<svg xmlns="http://www.w3.org/2000/svg" width="800" height="248" viewBox="0 0 800 248" role="img" aria-label="122곳 중 2024년 이후 지원사업 기록이 있는 22곳의 기록 출처">
<rect width="800" height="248" fill="#ffffff"/>
<text x="24.0" y="32.0" font-size="17" fill="#1a1a1a" text-anchor="start" font-weight="700" font-family="'Pretendard Variable',Pretendard,'Malgun Gothic','Apple SD Gothic Neo',sans-serif" >122곳 중 2024년 이후 지원사업 기록이 있는 22곳의 기록 출처</text>
<line x1="201.0" y1="60" x2="201.0" y2="188" stroke="#e0e0e0"/>
<text x="201.0" y="206.0" font-size="12" fill="#595959" text-anchor="middle" font-weight="400" font-family="'Pretendard Variable',Pretendard,'Malgun Gothic','Apple SD Gothic Neo',sans-serif" >0</text>
<line x1="330.8" y1="60" x2="330.8" y2="188" stroke="#e0e0e0"/>
<text x="330.8" y="206.0" font-size="12" fill="#595959" text-anchor="middle" font-weight="400" font-family="'Pretendard Variable',Pretendard,'Malgun Gothic','Apple SD Gothic Neo',sans-serif" >5</text>
<line x1="460.5" y1="60" x2="460.5" y2="188" stroke="#e0e0e0"/>
<text x="460.5" y="206.0" font-size="12" fill="#595959" text-anchor="middle" font-weight="400" font-family="'Pretendard Variable',Pretendard,'Malgun Gothic','Apple SD Gothic Neo',sans-serif" >10</text>
<line x1="590.2" y1="60" x2="590.2" y2="188" stroke="#e0e0e0"/>
<text x="590.2" y="206.0" font-size="12" fill="#595959" text-anchor="middle" font-weight="400" font-family="'Pretendard Variable',Pretendard,'Malgun Gothic','Apple SD Gothic Neo',sans-serif" >15</text>
<line x1="720.0" y1="60" x2="720.0" y2="188" stroke="#e0e0e0"/>
<text x="720.0" y="206.0" font-size="12" fill="#595959" text-anchor="middle" font-weight="400" font-family="'Pretendard Variable',Pretendard,'Malgun Gothic','Apple SD Gothic Neo',sans-serif" >20</text>
<text x="193.0" y="81.0" font-size="13" fill="#1a1a1a" text-anchor="end" font-weight="400" font-family="'Pretendard Variable',Pretendard,'Malgun Gothic','Apple SD Gothic Neo',sans-serif" >대구시 스타기업 등 현황</text>
<path d="M201,67 h333.4 q4,0 4,4 v6 q0,4 -4,4 h-333.4 z" fill="#1B4F9B"/>
<text x="544.4" y="78.0" font-size="12" fill="#1a1a1a" text-anchor="start" font-weight="600" font-family="'Pretendard Variable',Pretendard,'Malgun Gothic','Apple SD Gothic Neo',sans-serif" >13건</text>
<text x="193.0" y="113.0" font-size="13" fill="#1a1a1a" text-anchor="end" font-weight="400" font-family="'Pretendard Variable',Pretendard,'Malgun Gothic','Apple SD Gothic Neo',sans-serif" >케이메디허브 연구과제</text>
<path d="M201,99 h255.5 q4,0 4,4 v6 q0,4 -4,4 h-255.5 z" fill="#1B4F9B"/>
<text x="466.5" y="110.0" font-size="12" fill="#1a1a1a" text-anchor="start" font-weight="600" font-family="'Pretendard Variable',Pretendard,'Malgun Gothic','Apple SD Gothic Neo',sans-serif" >10건</text>
<text x="193.0" y="145.0" font-size="13" fill="#1a1a1a" text-anchor="end" font-weight="400" font-family="'Pretendard Variable',Pretendard,'Malgun Gothic','Apple SD Gothic Neo',sans-serif" >KEIT 산업기술 R&amp;D</text>
<path d="M201,131 h151.7 q4,0 4,4 v6 q0,4 -4,4 h-151.7 z" fill="#1B4F9B"/>
<text x="362.7" y="142.0" font-size="12" fill="#1a1a1a" text-anchor="start" font-weight="600" font-family="'Pretendard Variable',Pretendard,'Malgun Gothic','Apple SD Gothic Neo',sans-serif" >6건</text>
<text x="193.0" y="177.0" font-size="13" fill="#1a1a1a" text-anchor="end" font-weight="400" font-family="'Pretendard Variable',Pretendard,'Malgun Gothic','Apple SD Gothic Neo',sans-serif" >중기 우수 혁신제품</text>
<path d="M201,163 h21.9 q4,0 4,4 v6 q0,4 -4,4 h-21.9 z" fill="#1B4F9B"/>
<text x="232.9" y="174.0" font-size="12" fill="#1a1a1a" text-anchor="start" font-weight="600" font-family="'Pretendard Variable',Pretendard,'Malgun Gothic','Apple SD Gothic Neo',sans-serif" >1건</text>
<text x="24.0" y="234.0" font-size="12" fill="#595959" text-anchor="start" font-weight="400" font-family="'Pretendard Variable',Pretendard,'Malgun Gothic','Apple SD Gothic Neo',sans-serif" >출처: 지원 이력(사이트 수집분). 수집 출처가 한정돼 실제 수혜보다 적을 수 있음</text>
</svg>