<svg xmlns="http://www.w3.org/2000/svg" viewBox="0 0 360 300" width="100%" role="img" aria-label="대구 인구이동(월간). 2024-09부터 2026-08까지 24개월. 총전입 최근 19,288명; 총전출 최근 19,961명; 순이동 최근 -673명" style="max-width:360px;height:auto;font-size:14px">
<title>대구 인구이동(월간)</title>
<line x1="60" x2="284" y1="256.0" y2="256.0" stroke="#e0e0e0" stroke-width="1"/>
<text x="52" y="261.0" text-anchor="end" fill="#767676">0</text>
<line x1="60" x2="284" y1="184.0" y2="184.0" stroke="#e0e0e0" stroke-width="1"/>
<text x="52" y="189.0" text-anchor="end" fill="#767676">10,000</text>
<line x1="60" x2="284" y1="112.0" y2="112.0" stroke="#e0e0e0" stroke-width="1"/>
<text x="52" y="117.0" text-anchor="end" fill="#767676">20,000</text>
<line x1="60" x2="284" y1="40.0" y2="40.0" stroke="#e0e0e0" stroke-width="1"/>
<text x="52" y="45.0" text-anchor="end" fill="#767676">30,000</text>
<text x="108.7" y="280" text-anchor="middle" fill="#767676">2025.2</text>
<text x="167.1" y="280" text-anchor="middle" fill="#767676">2025.8</text>
<text x="225.6" y="280" text-anchor="middle" fill="#767676">2026.2</text>
<text x="284.0" y="280" text-anchor="middle" fill="#767676">2026.8</text>
<line x1="60" x2="284" y1="256" y2="256" stroke="#767676" stroke-width="1"/>
<path d="M60.0,93.7 L69.7,77.9 L79.5,96.7 L89.2,78.7 L99.0,79.4 L108.7,23.5 L118.4,93.7 L128.2,112.3 L137.9,112.0 L147.7,115.7 L157.4,89.6 L167.1,103.3 L176.9,95.4 L186.6,112.7 L196.3,120.5 L206.1,81.0 L215.8,66.4 L225.6,48.4 L235.3,65.0 L245.0,98.9 L254.8,94.1 L264.5,105.7 L274.3,116.2 L284.0,117.1" fill="none" stroke="#1B4F9B" style="stroke:var(--chart-1,#1B4F9B)" stroke-width="2" stroke-linejoin="round" stroke-linecap="round"/>
<circle cx="284.0" cy="117.1" r="3.5" style="fill:var(--chart-1,#1B4F9B)"/>
<text x="292.0" y="122.4" fill="#1a1a1a" font-weight="600">19,288명</text>
<text x="292.0" y="139.4" fill="#1a1a1a">총전입</text>
<path d="M60.0,94.0 L69.7,77.9 L79.5,96.8 L89.2,77.4 L99.0,81.0 L108.7,24.9 L118.4,82.4 L128.2,106.4 L137.9,106.9 L147.7,111.7 L157.4,92.6 L167.1,103.2 L176.9,95.8 L186.6,110.6 L196.3,117.3 L206.1,75.5 L215.8,64.6 L225.6,45.4 L235.3,57.5 L245.0,95.8 L254.8,96.1 L264.5,99.8 L274.3,113.0 L284.0,112.3" fill="none" stroke="#E69F00" style="stroke:var(--chart-2,#E69F00)" stroke-width="2" stroke-linejoin="round" stroke-linecap="round"/>
<circle cx="284.0" cy="112.3" r="3.5" style="fill:var(--chart-2,#E69F00)"/>
<text x="292.0" y="88.4" fill="#1a1a1a" font-weight="600">19,961명</text>
<text x="292.0" y="105.4" fill="#1a1a1a">총전출</text>
<path d="M60.0,255.7 L69.7,256.0 L79.5,255.9 L89.2,257.3 L99.0,254.4 L108.7,254.6 L118.4,267.3 L128.2,261.9 L137.9,261.1 L147.7,260.0 L157.4,253.0 L167.1,256.1 L176.9,255.5 L186.6,258.1 L196.3,259.3 L206.1,261.4 L215.8,257.8 L225.6,259.1 L235.3,263.6 L245.0,259.1 L254.8,254.0 L264.5,261.9 L274.3,259.3 L284.0,260.8" fill="none" stroke="#009E73" style="stroke:var(--chart-3,#009E73)" stroke-width="2" stroke-linejoin="round" stroke-linecap="round"/>
<circle cx="284.0" cy="260.8" r="3.5" style="fill:var(--chart-3,#009E73)"/>
<text x="292.0" y="237.0" fill="#1a1a1a" font-weight="600">-673명</text>
<text x="292.0" y="254.0" fill="#1a1a1a">순이동</text>
<text x="8" y="16" fill="#767676">KOSIS 시군구별 이동자수</text></svg>
