<svg xmlns="http://www.w3.org/2000/svg" viewBox="0 0 720 420" width="100%" role="img" aria-label="성서산단 산업별 고용 인원. 기계·금속 8,242명, 자동차·부품 5,364명, 전기·전자 5,010명, 기타 제조 2,191명, 섬유·패션 1,928명, 화학·에너지 1,748명, 식품 993명, 의료·바이오 689명, 기타 서비스 462명, 로봇 203명, 소프트웨어·IT 171명" style="max-width:720px;height:auto;font-size:14px">
<title>성서산단 산업별 고용 인원</title>
<text x="8" y="16" fill="#767676">고용 인원 = 국민연금 가입자수, 자료 14개월</text>
<text x="92" y="56.0" text-anchor="end" fill="#1a1a1a">기계·금속</text>
<rect x="102.0" y="40" width="556.0" height="22" fill="#1B4F9B" style="fill:var(--primary,#1B4F9B)"/>
<text x="666.0" y="56.0" fill="#1a1a1a">8,242명</text>
<text x="92" y="90.0" text-anchor="end" fill="#1a1a1a">자동차·부품</text>
<rect x="102.0" y="74" width="361.9" height="22" fill="#1B4F9B" style="fill:var(--primary,#1B4F9B)"/>
<text x="471.9" y="90.0" fill="#1a1a1a">5,364명</text>
<text x="92" y="124.0" text-anchor="end" fill="#1a1a1a">전기·전자</text>
<rect x="102.0" y="108" width="338.0" height="22" fill="#1B4F9B" style="fill:var(--primary,#1B4F9B)"/>
<text x="448.0" y="124.0" fill="#1a1a1a">5,010명</text>
<text x="92" y="158.0" text-anchor="end" fill="#1a1a1a">기타 제조</text>
<rect x="102.0" y="142" width="147.8" height="22" fill="#1B4F9B" style="fill:var(--primary,#1B4F9B)"/>
<text x="257.8" y="158.0" fill="#1a1a1a">2,191명</text>
<text x="92" y="192.0" text-anchor="end" fill="#1a1a1a">섬유·패션</text>
<rect x="102.0" y="176" width="130.1" height="22" fill="#1B4F9B" style="fill:var(--primary,#1B4F9B)"/>
<text x="240.1" y="192.0" fill="#1a1a1a">1,928명</text>
<text x="92" y="226.0" text-anchor="end" fill="#1a1a1a">화학·에너지</text>
<rect x="102.0" y="210" width="117.9" height="22" fill="#1B4F9B" style="fill:var(--primary,#1B4F9B)"/>
<text x="227.9" y="226.0" fill="#1a1a1a">1,748명</text>
<text x="92" y="260.0" text-anchor="end" fill="#1a1a1a">식품</text>
<rect x="102.0" y="244" width="67.0" height="22" fill="#1B4F9B" style="fill:var(--primary,#1B4F9B)"/>
<text x="177.0" y="260.0" fill="#1a1a1a">993명</text>
<text x="92" y="294.0" text-anchor="end" fill="#1a1a1a">의료·바이오</text>
<rect x="102.0" y="278" width="46.5" height="22" fill="#1B4F9B" style="fill:var(--primary,#1B4F9B)"/>
<text x="156.5" y="294.0" fill="#1a1a1a">689명</text>
<text x="92" y="328.0" text-anchor="end" fill="#1a1a1a">기타 서비스</text>
<rect x="102.0" y="312" width="31.2" height="22" fill="#1B4F9B" style="fill:var(--primary,#1B4F9B)"/>
<text x="141.2" y="328.0" fill="#1a1a1a">462명</text>
<text x="92" y="362.0" text-anchor="end" fill="#1a1a1a">로봇</text>
<rect x="102.0" y="346" width="13.7" height="22" fill="#1B4F9B" style="fill:var(--primary,#1B4F9B)"/>
<text x="123.7" y="362.0" fill="#1a1a1a">203명</text>
<text x="92" y="396.0" text-anchor="end" fill="#1a1a1a">소프트웨어·IT</text>
<rect x="102.0" y="380" width="11.5" height="22" fill="#1B4F9B" style="fill:var(--primary,#1B4F9B)"/>
<text x="121.5" y="396.0" fill="#1a1a1a">171명</text></svg>
