<svg xmlns="http://www.w3.org/2000/svg" viewBox="0 0 360 300" width="100%" role="img" aria-label="동구 고용 인원 추이. 2023-12부터 2026-08까지 14개월. 동구 최근 14,785명" style="max-width:360px;height:auto;font-size:14px">
<title>동구 고용 인원 추이</title>
<line x1="60" x2="284" y1="256.0" y2="256.0" stroke="#e0e0e0" stroke-width="1"/>
<text x="52" y="261.0" text-anchor="end" fill="#767676">12,000</text>
<line x1="60" x2="284" y1="148.0" y2="148.0" stroke="#e0e0e0" stroke-width="1"/>
<text x="52" y="153.0" text-anchor="end" fill="#767676">14,000</text>
<line x1="60" x2="284" y1="40.0" y2="40.0" stroke="#e0e0e0" stroke-width="1"/>
<text x="52" y="45.0" text-anchor="end" fill="#767676">16,000</text>
<text x="77.2" y="280" text-anchor="middle" fill="#767676">2024.1</text>
<text x="180.6" y="280" text-anchor="middle" fill="#767676">2024.12</text>
<text x="284.0" y="280" text-anchor="middle" fill="#767676">2026.8</text>
<line x1="60" x2="284" y1="256" y2="256" stroke="#767676" stroke-width="1"/>
<path d="M60.0,57.3 L77.2,68.3 L94.5,57.6 L111.7,224.2 L128.9,215.1 L146.2,206.4 L163.4,206.2 L180.6,203.0 L197.8,208.3 L215.1,207.0 L232.3,172.4 L249.5,144.7 L266.8,103.4 L284.0,105.6" fill="none" stroke="#1B4F9B" style="stroke:var(--primary,#1B4F9B)" stroke-width="2" stroke-linejoin="round" stroke-linecap="round"/>
<circle cx="284.0" cy="105.6" r="3.5" style="fill:var(--primary,#1B4F9B)"/>
<text x="292.0" y="110.6" fill="#1a1a1a" font-weight="600">14,785명</text>
<text x="8" y="16" fill="#767676">고용 인원 = 국민연금 가입자수, 자료 14개월</text></svg>
