<svg xmlns="http://www.w3.org/2000/svg" viewBox="0 0 720 420" width="100%" role="img" aria-label="달서구 산업별 고용 인원. 기계·금속 16,979명, 자동차·부품 10,167명, 전기·전자 10,133명, 화학·에너지 7,419명, 섬유·패션 5,745명, 기타 제조 4,474명, 기타 서비스 3,267명, 식품 1,932명, 로봇 1,276명, 의료·바이오 1,117명, 소프트웨어·IT 725명" style="max-width:720px;height:auto;font-size:14px">
<title>달서구 산업별 고용 인원</title>
<text x="8" y="16" fill="#767676">고용 인원 = 국민연금 가입자수, 자료 14개월</text>
<text x="92" y="56.0" text-anchor="end" fill="#1a1a1a">기계·금속</text>
<rect x="102" y="40" width="548.0" height="22" fill="#1B4F9B" style="fill:var(--primary,#1B4F9B)"/>
<text x="658.0" y="56.0" fill="#1a1a1a">16,979명</text>
<text x="92" y="90.0" text-anchor="end" fill="#1a1a1a">자동차·부품</text>
<rect x="102" y="74" width="328.1" height="22" fill="#1B4F9B" style="fill:var(--primary,#1B4F9B)"/>
<text x="438.1" y="90.0" fill="#1a1a1a">10,167명</text>
<text x="92" y="124.0" text-anchor="end" fill="#1a1a1a">전기·전자</text>
<rect x="102" y="108" width="327.0" height="22" fill="#1B4F9B" style="fill:var(--primary,#1B4F9B)"/>
<text x="437.0" y="124.0" fill="#1a1a1a">10,133명</text>
<text x="92" y="158.0" text-anchor="end" fill="#1a1a1a">화학·에너지</text>
<rect x="102" y="142" width="239.4" height="22" fill="#1B4F9B" style="fill:var(--primary,#1B4F9B)"/>
<text x="349.4" y="158.0" fill="#1a1a1a">7,419명</text>
<text x="92" y="192.0" text-anchor="end" fill="#1a1a1a">섬유·패션</text>
<rect x="102" y="176" width="185.4" height="22" fill="#1B4F9B" style="fill:var(--primary,#1B4F9B)"/>
<text x="295.4" y="192.0" fill="#1a1a1a">5,745명</text>
<text x="92" y="226.0" text-anchor="end" fill="#1a1a1a">기타 제조</text>
<rect x="102" y="210" width="144.4" height="22" fill="#1B4F9B" style="fill:var(--primary,#1B4F9B)"/>
<text x="254.4" y="226.0" fill="#1a1a1a">4,474명</text>
<text x="92" y="260.0" text-anchor="end" fill="#1a1a1a">기타 서비스</text>
<rect x="102" y="244" width="105.4" height="22" fill="#1B4F9B" style="fill:var(--primary,#1B4F9B)"/>
<text x="215.4" y="260.0" fill="#1a1a1a">3,267명</text>
<text x="92" y="294.0" text-anchor="end" fill="#1a1a1a">식품</text>
<rect x="102" y="278" width="62.4" height="22" fill="#1B4F9B" style="fill:var(--primary,#1B4F9B)"/>
<text x="172.4" y="294.0" fill="#1a1a1a">1,932명</text>
<text x="92" y="328.0" text-anchor="end" fill="#1a1a1a">로봇</text>
<rect x="102" y="312" width="41.2" height="22" fill="#1B4F9B" style="fill:var(--primary,#1B4F9B)"/>
<text x="151.2" y="328.0" fill="#1a1a1a">1,276명</text>
<text x="92" y="362.0" text-anchor="end" fill="#1a1a1a">의료·바이오</text>
<rect x="102" y="346" width="36.1" height="22" fill="#1B4F9B" style="fill:var(--primary,#1B4F9B)"/>
<text x="146.1" y="362.0" fill="#1a1a1a">1,117명</text>
<text x="92" y="396.0" text-anchor="end" fill="#1a1a1a">소프트웨어·IT</text>
<rect x="102" y="380" width="23.4" height="22" fill="#1B4F9B" style="fill:var(--primary,#1B4F9B)"/>
<text x="133.4" y="396.0" fill="#1a1a1a">725명</text></svg>
