<svg xmlns="http://www.w3.org/2000/svg" viewBox="0 0 360 530" width="100%" role="img" aria-label="의료·바이오 산단별 고용 인원. 대구연구개발특구 1,778명, 성서산단 959명, 개별입지 949명, 성서5차산단 683명, 대구제3산단 421명, 서대구산단 352명, 달성산단 118명, 대구테크노폴리스산단 83명, 경자구역 수성의료지구 80명, 대구금호워터폴리스산단 50명, 그 밖의 단지 157명" style="max-width:360px;height:auto;font-size:14px">
<title>의료·바이오 산단별 고용 인원</title>
<text x="8" y="16" fill="#767676">고용 인원 = 공장등록 신고값(팩토리온), 자료 1개월</text>
<text x="8" y="48.0" fill="#1a1a1a">대구연구개발특구</text>
<rect x="8" y="54" width="290.0" height="18" fill="#1B4F9B" style="fill:var(--primary,#1B4F9B)"/>
<text x="304.0" y="68.0" fill="#1a1a1a">1,778명</text>
<text x="8" y="92.0" fill="#1a1a1a">성서산단</text>
<rect x="8" y="98" width="156.4" height="18" fill="#1B4F9B" style="fill:var(--primary,#1B4F9B)"/>
<text x="170.4" y="112.0" fill="#1a1a1a">959명</text>
<text x="8" y="136.0" fill="#1a1a1a">개별입지</text>
<rect x="8" y="142" width="154.8" height="18" fill="#1B4F9B" style="fill:var(--primary,#1B4F9B)"/>
<text x="168.8" y="156.0" fill="#1a1a1a">949명</text>
<text x="8" y="180.0" fill="#1a1a1a">성서5차산단</text>
<rect x="8" y="186" width="111.4" height="18" fill="#1B4F9B" style="fill:var(--primary,#1B4F9B)"/>
<text x="125.4" y="200.0" fill="#1a1a1a">683명</text>
<text x="8" y="224.0" fill="#1a1a1a">대구제3산단</text>
<rect x="8" y="230" width="68.7" height="18" fill="#1B4F9B" style="fill:var(--primary,#1B4F9B)"/>
<text x="82.7" y="244.0" fill="#1a1a1a">421명</text>
<text x="8" y="268.0" fill="#1a1a1a">서대구산단</text>
<rect x="8" y="274" width="57.4" height="18" fill="#1B4F9B" style="fill:var(--primary,#1B4F9B)"/>
<text x="71.4" y="288.0" fill="#1a1a1a">352명</text>
<text x="8" y="312.0" fill="#1a1a1a">달성산단</text>
<rect x="8" y="318" width="19.2" height="18" fill="#1B4F9B" style="fill:var(--primary,#1B4F9B)"/>
<text x="33.2" y="332.0" fill="#1a1a1a">118명</text>
<text x="8" y="356.0" fill="#1a1a1a">대구테크노폴리스산단</text>
<rect x="8" y="362" width="13.5" height="18" fill="#1B4F9B" style="fill:var(--primary,#1B4F9B)"/>
<text x="27.5" y="376.0" fill="#1a1a1a">83명</text>
<text x="8" y="400.0" fill="#1a1a1a">경자구역 수성의료지구</text>
<rect x="8" y="406" width="13.0" height="18" fill="#1B4F9B" style="fill:var(--primary,#1B4F9B)"/>
<text x="27.0" y="420.0" fill="#1a1a1a">80명</text>
<text x="8" y="444.0" fill="#1a1a1a">대구금호워터폴리스산단</text>
<rect x="8" y="450" width="8.2" height="18" fill="#1B4F9B" style="fill:var(--primary,#1B4F9B)"/>
<text x="22.2" y="464.0" fill="#1a1a1a">50명</text>
<text x="8" y="488.0" fill="#1a1a1a">그 밖의 단지</text>
<rect x="8" y="494" width="25.6" height="18" fill="#767676" style="fill:var(--muted,#767676)"/>
<text x="39.6" y="508.0" fill="#1a1a1a">157명</text></svg>
