<svg xmlns="http://www.w3.org/2000/svg" viewBox="0 0 720 340" width="100%" role="img" aria-label="대구 고용 인원 추이. 2023-12부터 2026-08까지 33개월(자료 없는 달 19개는 점선으로 건너뜀). 전체 최근 156,098명" style="max-width:720px;height:auto;font-size:14px">
<title>대구 고용 인원 추이</title>
<line x1="72" x2="636" y1="296.0" y2="296.0" stroke="#e0e0e0" stroke-width="1"/>
<text x="64" y="301.0" text-anchor="end" fill="#767676">130,000</text>
<line x1="72" x2="636" y1="210.7" y2="210.7" stroke="#e0e0e0" stroke-width="1"/>
<text x="64" y="215.7" text-anchor="end" fill="#767676">140,000</text>
<line x1="72" x2="636" y1="125.3" y2="125.3" stroke="#e0e0e0" stroke-width="1"/>
<text x="64" y="130.3" text-anchor="end" fill="#767676">150,000</text>
<line x1="72" x2="636" y1="40.0" y2="40.0" stroke="#e0e0e0" stroke-width="1"/>
<text x="64" y="45.0" text-anchor="end" fill="#767676">160,000</text>
<text x="107.2" y="320" text-anchor="middle" fill="#767676">24.2</text>
<text x="160.1" y="320" text-anchor="middle" fill="#767676">24.5</text>
<text x="213.0" y="320" text-anchor="middle" fill="#767676">24.8</text>
<text x="265.9" y="320" text-anchor="middle" fill="#767676">24.11</text>
<text x="318.8" y="320" text-anchor="middle" fill="#767676">25.2</text>
<text x="371.6" y="320" text-anchor="middle" fill="#767676">25.5</text>
<text x="424.5" y="320" text-anchor="middle" fill="#767676">25.8</text>
<text x="477.4" y="320" text-anchor="middle" fill="#767676">25.11</text>
<text x="530.2" y="320" text-anchor="middle" fill="#767676">26.2</text>
<text x="583.1" y="320" text-anchor="middle" fill="#767676">26.5</text>
<text x="636.0" y="320" text-anchor="middle" fill="#767676">26.8</text>
<line x1="72" x2="636" y1="296" y2="296" stroke="#767676" stroke-width="1"/>
<path d="M89.6,168.2 L142.5,162.0 M142.5,162.0 L177.8,199.6 M195.4,194.4 L248.2,200.0 M318.8,202.2 L389.2,98.8 M389.2,98.8 L512.6,99.5 M512.6,99.5 L618.4,73.0" fill="none" stroke="#1B4F9B" style="stroke:var(--primary,#1B4F9B)" stroke-width="1.5" stroke-dasharray="3 5" stroke-linecap="round" opacity="0.7"/>
<path d="M72.0,161.2 L89.6,168.2" fill="none" stroke="#1B4F9B" style="stroke:var(--primary,#1B4F9B)" stroke-width="2" stroke-linejoin="round" stroke-linecap="round"/>
<circle cx="72.0" cy="161.2" r="3" style="fill:var(--primary,#1B4F9B)"/>
<circle cx="89.6" cy="168.2" r="3" style="fill:var(--primary,#1B4F9B)"/>
<circle cx="142.5" cy="162.0" r="3.5" style="fill:var(--primary,#1B4F9B)"/>
<path d="M177.8,199.6 L195.4,194.4" fill="none" stroke="#1B4F9B" style="stroke:var(--primary,#1B4F9B)" stroke-width="2" stroke-linejoin="round" stroke-linecap="round"/>
<circle cx="177.8" cy="199.6" r="3" style="fill:var(--primary,#1B4F9B)"/>
<circle cx="195.4" cy="194.4" r="3" style="fill:var(--primary,#1B4F9B)"/>
<path d="M248.2,200.0 L265.9,199.1 L283.5,200.9 L301.1,207.2 L318.8,202.2" fill="none" stroke="#1B4F9B" style="stroke:var(--primary,#1B4F9B)" stroke-width="2" stroke-linejoin="round" stroke-linecap="round"/>
<circle cx="248.2" cy="200.0" r="3" style="fill:var(--primary,#1B4F9B)"/>
<circle cx="265.9" cy="199.1" r="3" style="fill:var(--primary,#1B4F9B)"/>
<circle cx="283.5" cy="200.9" r="3" style="fill:var(--primary,#1B4F9B)"/>
<circle cx="301.1" cy="207.2" r="3" style="fill:var(--primary,#1B4F9B)"/>
<circle cx="318.8" cy="202.2" r="3" style="fill:var(--primary,#1B4F9B)"/>
<circle cx="389.2" cy="98.8" r="3.5" style="fill:var(--primary,#1B4F9B)"/>
<circle cx="512.6" cy="99.5" r="3.5" style="fill:var(--primary,#1B4F9B)"/>
<path d="M618.4,73.0 L636.0,73.3" fill="none" stroke="#1B4F9B" style="stroke:var(--primary,#1B4F9B)" stroke-width="2" stroke-linejoin="round" stroke-linecap="round"/>
<circle cx="618.4" cy="73.0" r="3" style="fill:var(--primary,#1B4F9B)"/>
<circle cx="636.0" cy="73.3" r="3" style="fill:var(--primary,#1B4F9B)"/>
<circle cx="636.0" cy="73.3" r="3.5" style="fill:var(--primary,#1B4F9B)"/>
<text x="644.0" y="78.3" fill="#1a1a1a" font-weight="600">156,098명</text>
<text x="72" y="16" fill="#767676">고용 인원 = 국민연금 가입자수, 자료 14개월</text></svg>
